<?xml version="1.0" encoding="utf-8"?>
<svg version="1.1" xmlns:xlink="http://www.w3.org/1999/xlink" width="18px" height="18px" xmlns="http://www.w3.org/2000/svg">
  <g transform="matrix(1 0 0 1 -698 -388 )">
    <path d="M 3.0415841584158416 16.479207920792078  L 4.312871287128713 16.479207920792078  L 5.394059405940594 15.398019801980197  L 2.6019801980198016 12.605940594059406  L 1.5207920792079208 13.687128712871287  L 1.5207920792079208 14.95841584158416  L 3.0415841584158416 14.95841584158416  L 3.0415841584158416 16.479207920792078  Z M 10.443564356435642 5.655445544554455  C 10.4990099009901 5.6  10.526732673267327 5.532673267326732  10.526732673267327 5.453465346534655  C 10.526732673267327 5.279207920792079  10.43960396039604 5.192079207920791  10.265346534653464 5.192079207920791  C 10.186138613861386 5.192079207920791  10.11881188118812 5.219801980198019  10.063366336633663 5.275247524752476  L 3.6237623762376234 11.714851485148516  C 3.568316831683169 11.770297029702968  3.5405940594059406 11.837623762376236  3.5405940594059406 11.916831683168317  C 3.5405940594059406 12.091089108910888  3.6277227722772283 12.17821782178218  3.801980198019802 12.17821782178218  C 3.8811881188118815 12.17821782178218  3.948514851485149 12.15049504950495  4.003960396039604 12.095049504950495  L 10.443564356435642 5.655445544554455  Z M 0 13.057425742574258  L 9.885148514851485 3.1722772277227733  L 14.827722772277227 8.114851485148515  L 4.9425742574257425 18  L 0 18  L 0 13.057425742574258  Z M 17.560396039603962 3.231683168316831  C 17.853465346534655 3.540594059405941  18 3.900990099009901  18 4.312871287128713  C 18 4.732673267326732  17.853465346534655 5.089108910891087  17.560396039603962 5.382178217821783  L 15.588118811881188 7.354455445544554  L 10.645544554455446 2.4118811881188127  L 12.617821782178217 0.45148514851485055  C 12.902970297029702 0.15049504950494885  13.259405940594059 0  13.687128712871287 0  C 14.106930693069309 0  14.46732673267327 0.15049504950494885  14.768316831683169 0.45148514851485055  L 17.560396039603962 3.231683168316831  Z " fill-rule="nonzero" fill="#000000" stroke="none" transform="matrix(1 0 0 1 698 388 )" />
  </g>
</svg>