<?xml version="1.0" encoding="utf-8"?>
<svg version="1.1" xmlns:xlink="http://www.w3.org/1999/xlink" width="18px" height="18px" xmlns="http://www.w3.org/2000/svg">
  <g transform="matrix(1 0 0 1 -72 -404 )">
    <path d="M 4.5 8.1  L 4.5 9.9  L 13.5 9.9  L 13.5 8.1  L 4.5 8.1  Z M 12.510000000000002 17.291249999999998  C 11.415000000000003 17.76375  10.245000000000001 18  9 18  C 7.755 18  6.585000000000001 17.76375  5.49 17.291249999999998  C 4.395000000000001 16.818749999999998  3.4425 16.177500000000002  2.6325000000000007 15.3675  C 1.8225000000000005 14.557500000000001  1.1812500000000001 13.605  0.7087500000000001 12.510000000000002  C 0.23625000000000015 11.414999999999997  0 10.245  0 9  C 0 7.754999999999999  0.23625000000000015 6.584999999999998  0.7087500000000001 5.49  C 1.1812500000000001 4.394999999999997  1.8225000000000005 3.4424999999999994  2.6325000000000007 2.6325000000000007  C 3.4425 1.8224999999999987  4.395000000000001 1.1812500000000001  5.49 0.7087499999999981  C 6.585000000000001 0.23624999999999938  7.755 0  9 0  C 10.245000000000001 0  11.415000000000003 0.23624999999999938  12.510000000000002 0.7087499999999981  C 13.605000000000004 1.1812500000000001  14.557500000000001 1.8224999999999987  15.3675 2.6325000000000007  C 16.177500000000002 3.4424999999999994  16.818749999999998 4.394999999999997  17.29125 5.49  C 17.76375 6.584999999999998  18 7.754999999999999  18 9  C 18 10.245  17.76375 11.414999999999997  17.29125 12.510000000000002  C 16.818749999999998 13.605  16.177500000000002 14.557500000000001  15.3675 15.3675  C 14.557500000000001 16.177500000000002  13.605000000000004 16.818749999999998  12.510000000000002 17.291249999999998  Z M 3.8925 14.107500000000002  C 5.2875000000000005 15.502500000000001  6.99 16.2  9 16.2  C 11.01 16.2  12.7125 15.502500000000001  14.107500000000002 14.107500000000002  C 15.502500000000001 12.7125  16.2 11.009999999999998  16.2 9  C 16.2 6.989999999999999  15.502500000000001 5.2875000000000005  14.107500000000002 3.8924999999999996  C 12.7125 2.4974999999999987  11.01 1.8  9 1.8  C 6.99 1.8  5.2875000000000005 2.4974999999999987  3.8925 3.8924999999999996  C 2.4975 5.2875000000000005  1.8 6.989999999999999  1.8 9  C 1.8 11.009999999999998  2.4975 12.7125  3.8925 14.107500000000002  Z " fill-rule="nonzero" fill="#000000" stroke="none" transform="matrix(1 0 0 1 72 404 )" />
  </g>
</svg>