<?xml version="1.0" encoding="utf-8"?>
<svg version="1.1" xmlns:xlink="http://www.w3.org/1999/xlink" width="18px" height="18px" xmlns="http://www.w3.org/2000/svg">
  <g transform="matrix(1 0 0 1 -102 -437 )">
    <path d="M 8 10  L 8 14  L 10 14  L 10 10  L 14 10  L 14 8  L 10 8  L 10 4  L 8 4  L 8 8  L 4 8  L 4 10  L 8 10  Z M 16 18  L 2 18  C 1.4500000000000002 18  0.9791666666666674 17.804166666666667  0.5875000000000004 17.4125  C 0.19583333333333375 17.020833333333332  0 16.55  0 16  L 0 2  C 0 1.4499999999999993  0.19583333333333375 0.9791666666666643  0.5875000000000004 0.5874999999999986  C 0.9791666666666674 0.1958333333333293  1.4500000000000002 0  2 0  L 16 0  C 16.55 0  17.020833333333336 0.1958333333333293  17.4125 0.5874999999999986  C 17.80416666666667 0.9791666666666643  18.000000000000004 1.4499999999999993  18 2  L 18 16  C 18.000000000000004 16.55  17.80416666666667 17.020833333333332  17.4125 17.4125  C 17.020833333333336 17.804166666666667  16.55 18  16 18  Z M 2 2  L 2 16  L 16 16  L 16 2  L 2 2  Z M 2 16  L 2 2  L 2 16  Z " fill-rule="nonzero" fill="#000000" stroke="none" transform="matrix(1 0 0 1 102 437 )" />
  </g>
</svg>