<?xml version="1.0" encoding="utf-8"?>
<svg version="1.1" xmlns:xlink="http://www.w3.org/1999/xlink" width="10px" height="19px" xmlns="http://www.w3.org/2000/svg">
  <g transform="matrix(1 0 0 1 -813 -452 )">
    <path d="M 10 9.5  C 10 9.704301075268816  9.938867438867439 9.881100082712985  9.816602316602317 10.030397022332505  L 2.6544401544401546 18.77605459057072  C 2.5321750321750325 18.92535153019024  2.387387387387388 19  2.2200772200772203 19  C 2.052767052767053 19  1.9079794079794081 18.92535153019024  1.7857142857142858 18.77605459057072  L 0.18339768339768342 16.819478908188586  C 0.06113256113256123 16.670181968569064  0 16.493382961124894  0 16.28908188585608  C 0 16.08478081058726  0.06113256113256123 15.907981803143093  0.18339768339768342 15.758684863523573  L 5.308880308880309 9.5  L 0.18339768339768342 3.241315136476427  C 0.06113256113256123 3.0920181968569045  0 2.9152191894127366  0 2.7109181141439196  C 0 2.506617038875101  0.06113256113256123 2.329818031430933  0.18339768339768342 2.180521091811414  L 1.7857142857142858 0.22394540942927987  C 1.9079794079794081 0.07464846980975925  2.052767052767053 0  2.2200772200772203 0  C 2.387387387387388 0  2.5321750321750325 0.07464846980975925  2.6544401544401546 0.22394540942927987  L 9.816602316602317 8.969602977667495  C 9.938867438867439 9.118899917287013  10 9.295698924731184  10 9.5  Z " fill-rule="nonzero" fill="#1d70b8" stroke="none" transform="matrix(1 0 0 1 813 452 )" />
  </g>
</svg>